<svg width="1200" height="630" viewBox="0 0 1200 630" fill="none" xmlns="http://www.w3.org/2000/svg" xmlns:xlink="http://www.w3.org/1999/xlink">
  <!-- Background -->
  <rect width="1200" height="630" fill="#05070d"/>

  <!-- Gradient Overlay -->
  <defs>
    <linearGradient id="bgGradient" x1="0" y1="0" x2="1200" y2="630" gradientUnits="userSpaceOnUse">
      <stop offset="0" stop-color="#0c111c" stop-opacity="0.5"/>
      <stop offset="1" stop-color="#05070d" stop-opacity="1"/>
    </linearGradient>
    <linearGradient id="brandGradient" x1="0" y1="0" x2="200" y2="200" gradientUnits="userSpaceOnUse">
      <stop offset="0" stop-color="#76ddff"/>
      <stop offset="1" stop-color="#5b8aff"/>
    </linearGradient>
    <linearGradient id="accentGradient" x1="0" y1="0" x2="100" y2="100" gradientUnits="userSpaceOnUse">
      <stop offset="0" stop-color="#3ed598"/>
      <stop offset="1" stop-color="#76ddff"/>
    </linearGradient>
  </defs>

  <rect width="1200" height="630" fill="url(#bgGradient)"/>

  <!-- Top Section: Logo & Tagline -->
  <g transform="translate(100, 80)">
    <!-- SignalPilot Logo (scaled up) -->
    <g transform="scale(2.5)">
      <defs>
        <linearGradient id="pilotMark" x1="6" y1="6" x2="34" y2="34" gradientUnits="userSpaceOnUse">
          <stop offset="0" stop-color="#76ddff" />
          <stop offset="1" stop-color="#5b8aff" />
        </linearGradient>
        <linearGradient id="signalHighlight" x1="14" y1="10" x2="30" y2="28" gradientUnits="userSpaceOnUse">
          <stop offset="0" stop-color="rgba(236, 241, 255, 0.9)" />
          <stop offset="1" stop-color="rgba(236, 241, 255, 0.2)" />
        </linearGradient>
      </defs>
      <rect x="4" y="4" width="32" height="32" rx="12" fill="url(#pilotMark)" />
      <path d="M24.6 13.2c.88.58 1.12 1.84.48 2.7l-4.08 5.36c-.52.68-1.52.84-2.24.36l-2.36-1.56a1.6 1.6 0 0 1-.36-2.32l4.04-5.32c.64-.84 1.84-1.04 2.68-.52l1.84 1.2z" fill="#05070d" opacity="0.35" />
      <path d="M16.7 17.3c-.86 1.16-.58 2.8.62 3.52l2.32 1.44a2.4 2.4 0 0 0 3.28-.72l4.12-5.4c.82-1.1.5-2.66-.7-3.38l-1.9-1.14a2.4 2.4 0 0 0-3.24.7l-4.5 5.98z" fill="url(#signalHighlight)" />
      <path d="M28.2 14.1c.54-.74 1.58-.9 2.32-.36.74.54.9 1.58.36 2.32l-3.6 4.88c-.54.74-1.58.9-2.32.36-.74-.54-.9-1.58-.36-2.32l3.6-4.88z" fill="#ecf1ff" opacity="0.9" />
      <path d="M13.2 20.8c-.54.74-1.58.9-2.32.36-.74-.54-.9-1.58-.36-2.32l3.56-4.84c.54-.74 1.58-.9 2.32-.36.74.54.9 1.58.36 2.32l-3.56 4.84z" fill="#ecf1ff" opacity="0.6" />
    </g>

    <!-- Brand Name -->
    <text x="260" y="55" fill="#ecf1ff" font-size="52" font-weight="700" font-family="'Space Grotesk', 'Inter', 'Segoe UI', system-ui, sans-serif" letter-spacing="0.02em">
      Signal<tspan fill="#76ddff">Pilot</tspan>
    </text>
  </g>

  <!-- Main Headline -->
  <text x="600" y="220" text-anchor="middle" fill="#ecf1ff" font-size="48" font-weight="700" font-family="'Space Grotesk', 'Inter', system-ui, sans-serif" letter-spacing="-0.02em">
    Non-Repainting TradingView Indicators
  </text>

  <!-- Subheadline -->
  <text x="600" y="270" text-anchor="middle" fill="#b7c2d9" font-size="28" font-weight="500" font-family="'Space Grotesk', 'Inter', system-ui, sans-serif">
    Professional Cycle Detection for Any Market & Timeframe
  </text>

  <!-- Feature Pills -->
  <g transform="translate(200, 330)">
    <!-- Pill 1: Zero Repaint -->
    <g>
      <rect x="0" y="0" width="220" height="60" rx="30" fill="rgba(62, 213, 152, 0.15)" stroke="#3ed598" stroke-width="2"/>
      <text x="110" y="38" text-anchor="middle" fill="#3ed598" font-size="20" font-weight="700" font-family="'Space Grotesk', sans-serif">
        ✓ Zero Repaint
      </text>
    </g>

    <!-- Pill 2: All Markets -->
    <g transform="translate(250, 0)">
      <rect x="0" y="0" width="220" height="60" rx="30" fill="rgba(118, 221, 255, 0.15)" stroke="#76ddff" stroke-width="2"/>
      <text x="110" y="38" text-anchor="middle" fill="#76ddff" font-size="20" font-weight="700" font-family="'Space Grotesk', sans-serif">
        ★ All Markets
      </text>
    </g>

    <!-- Pill 3: 7-Day MBG -->
    <g transform="translate(500, 0)">
      <rect x="0" y="0" width="220" height="60" rx="30" fill="rgba(249, 162, 60, 0.15)" stroke="#f9a23c" stroke-width="2"/>
      <text x="110" y="38" text-anchor="middle" fill="#f9a23c" font-size="20" font-weight="700" font-family="'Space Grotesk', sans-serif">
        🛡️ 7-Day MBG
      </text>
    </g>
  </g>

  <!-- Chart Comparison (Embedded) -->
  <g transform="translate(150, 440)">
    <rect x="0" y="0" width="900" height="140" rx="12" fill="#0c111c" stroke="rgba(91, 138, 255, 0.3)" stroke-width="2"/>

    <!-- Before/After Text -->
    <text x="225" y="30" text-anchor="middle" fill="#ff6b6b" font-size="18" font-weight="600" font-family="'Space Grotesk', sans-serif">
      ❌ Traditional Indicators
    </text>
    <text x="675" y="30" text-anchor="middle" fill="#3ed598" font-size="18" font-weight="600" font-family="'Space Grotesk', sans-serif">
      ✓ SignalPilot Pentarch
    </text>

    <!-- Visual representation -->
    <g transform="translate(20, 50)">
      <!-- Left side: messy signals -->
      <line x1="0" y1="40" x2="400" y2="40" stroke="#8ea0bf" stroke-width="2" opacity="0.3"/>
      <circle cx="50" cy="20" r="4" fill="#ff6b6b"/>
      <circle cx="80" cy="45" r="4" fill="#ff6b6b"/>
      <circle cx="50" cy="55" r="4" fill="#ff6b6b" opacity="0.3"/>
      <circle cx="120" cy="30" r="4" fill="#ff6b6b"/>
      <circle cx="140" cy="50" r="4" fill="#ff6b6b" opacity="0.3"/>
      <circle cx="180" cy="25" r="4" fill="#ff6b6b"/>
      <circle cx="200" cy="35" r="4" fill="#ff6b6b" opacity="0.3"/>
      <circle cx="240" cy="50" r="4" fill="#ff6b6b"/>
      <circle cx="280" cy="40" r="4" fill="#ff6b6b" opacity="0.3"/>
      <circle cx="320" cy="28" r="4" fill="#ff6b6b"/>
      <circle cx="360" cy="45" r="4" fill="#ff6b6b" opacity="0.3"/>
      <text x="200" y="75" text-anchor="middle" fill="#ff6b6b" font-size="12" opacity="0.8">Repainting signals</text>

      <!-- Right side: clean signals -->
      <line x1="460" y1="40" x2="860" y2="40" stroke="#76ddff" stroke-width="2" opacity="0.5"/>
      <rect x="520" y="20" width="3" height="40" fill="#3ed598" opacity="0.8"/>
      <text x="525" y="14" fill="#3ed598" font-size="10" font-weight="600">TD</text>
      <rect x="600" y="15" width="3" height="50" fill="#3ed598"/>
      <text x="605" y="10" fill="#3ed598" font-size="10" font-weight="600">IGN</text>
      <rect x="680" y="25" width="3" height="30" fill="#FFD700"/>
      <text x="685" y="20" fill="#FFD700" font-size="10" font-weight="600">WRN</text>
      <rect x="760" y="20" width="3" height="40" fill="#ff4560" opacity="0.8"/>
      <text x="765" y="14" fill="#ff4560" font-size="10" font-weight="600">CAP</text>
      <text x="660" y="75" text-anchor="middle" fill="#3ed598" font-size="12" opacity="0.8">5-Phase cycle mapping</text>
    </g>
  </g>

  <!-- Bottom: CTA -->
  <text x="600" y="610" text-anchor="middle" fill="#8ea0bf" font-size="20" font-weight="500" font-family="'Space Grotesk', sans-serif">
    signalpilot.io
  </text>
</svg>
